<svg width="370" height="130" viewBox="0 0 370 130" fill="none" xmlns="http://www.w3.org/2000/svg">
<path d="M16.2153 58.5583V18.3266L30.855 21.9735V21.3262L32.0712 21.0236L14.999 16.7708V59.509L30.855 63.4567V62.2025L16.2153 58.5583Z" fill="#F0EBFF"/>
<path d="M17.4311 57.6084V19.8824L30.8546 23.2268V21.9735L16.2148 18.3266V58.5583L30.8546 62.2025V60.951L17.4311 57.6084Z" fill="#F0EBFF"/>
<path d="M46.7115 59.6104V58.8608L33.2871 62.2025V63.4567L47.9894 59.7948L46.7115 59.6104Z" fill="#F0EBFF"/>
<path d="M33.2875 21.9735L46.7119 18.6291V17.3767L32.0713 21.0236L33.2875 21.3261V21.9735Z" fill="#F0EBFF"/>
<path d="M32.0707 62.5077L30.8545 62.2025V63.4567L32.0707 63.7601L33.2869 63.4567V62.2025L32.0707 62.5077Z" fill="#F0EBFF"/>
<path d="M30.8545 21.9735L32.0707 22.276L33.2869 21.9735V21.3261L32.0707 21.0236L30.8545 21.3261V21.9735Z" fill="#F0EBFF"/>
<path d="M30.8545 21.9735V23.2268V60.951V62.2025L32.0707 62.5077V22.276L30.8545 21.9735Z" fill="#F0EBFF"/>
<path d="M46.7115 19.8824V18.6291L33.2871 21.9735V23.2268L46.7115 19.8824Z" fill="#F0EBFF"/>
<path d="M33.2871 60.951V62.2025L46.7115 58.8608V57.6084L33.2871 60.951Z" fill="#F0EBFF"/>
<path d="M33.2875 23.2268V21.9735L32.0713 22.276V62.5077L33.2875 62.2025V60.951V23.2268Z" fill="#F0EBFF"/>
<path d="M63.7844 20.6021V60.8337L49.1447 58.732V59.509L47.9902 59.7948L65.0007 62.236V19.5481L49.1447 17.2726V18.5012L63.7844 20.6021Z" fill="#F0EBFF"/>
<path d="M49.1444 58.732L47.9281 58.5582L46.7119 58.8607V59.6104L47.9899 59.7947L49.1444 59.509V58.732Z" fill="#F0EBFF"/>
<path d="M47.9281 18.3266L49.1444 18.5012V17.2726L47.8646 17.0892L46.7119 17.3767V18.6291L47.9281 18.3266Z" fill="#F0EBFF"/>
<path d="M47.9281 18.3266L46.7119 18.6291V19.8824V57.6084V58.8608L47.9281 58.5583V18.3266Z" fill="#F0EBFF"/>
<path d="M62.5689 21.6569V59.4314L49.1445 57.5034V58.732L63.7842 60.8337V20.6021L49.1445 18.5012V19.7289L62.5689 21.6569Z" fill="#F0EBFF"/>
<path d="M49.144 58.732V57.5034V19.7289V18.5012L47.9277 18.3266V58.5583L49.144 58.732Z" fill="#F0EBFF"/>
<path d="M123.902 45.3209C123.102 46.0485 122.19 46.643 121.198 47.0769C123.848 47.816 125.704 49.8877 125.704 52.2302C125.704 55.2298 122.729 57.6711 119.072 57.6711C117.637 57.6711 116.267 57.2953 115.112 56.5845L113.726 55.7307L112.339 56.5845C111.183 57.2962 109.812 57.6711 108.375 57.6711C106.501 57.6711 104.709 57.0131 103.458 55.8657L101.673 54.2288L99.885 55.8639C98.6282 57.0131 96.8351 57.6719 94.9654 57.6719C91.307 57.6719 88.3312 55.2307 88.3312 52.2311C88.3312 49.5499 90.7646 47.2348 93.9908 46.8458L96.694 46.5195L96.321 44.0271C96.4391 42.5798 98.8019 41.0108 101.938 41.0108C103.425 41.0108 104.848 41.3671 105.946 42.0153L107.293 42.81L108.281 42.2243C107.898 41.4112 107.626 40.5451 107.474 39.6437C107.415 39.6772 107.346 39.7019 107.289 39.7354C105.846 38.8843 103.978 38.3649 101.937 38.3649C97.3705 38.3649 93.6689 40.949 93.6689 44.1391C93.6689 44.1638 93.6689 44.1929 93.6724 44.2185C89.1576 44.7626 85.6836 48.1406 85.6836 52.2311C85.6836 56.6974 89.8359 60.3178 94.9636 60.3178C97.6007 60.3178 99.982 59.3574 101.668 57.8166C103.355 59.3627 105.736 60.3178 108.373 60.3178C110.368 60.3178 112.213 59.7684 113.724 58.8379C115.236 59.7684 117.081 60.3178 119.071 60.3178C124.195 60.3178 128.349 56.6983 128.349 52.2311C128.349 49.3021 126.57 46.74 123.902 45.3209Z" fill="#F0EBFF"/>
<path d="M118.26 44.0571L118.081 45.2133C119.095 45.096 120.053 44.7723 120.902 44.274C120.908 44.2282 120.91 44.1841 120.91 44.1391C120.91 40.949 117.208 38.3649 112.641 38.3649C111.717 38.3649 110.837 38.4831 110.009 38.6771C110.09 39.5617 110.336 40.4207 110.735 41.2233C111.343 41.0901 111.983 41.0099 112.641 41.0099C115.791 41.009 118.162 42.5912 118.26 44.0571Z" fill="#F0EBFF"/>
<path d="M110.095 36.6909C110.728 33.2442 113.727 30.7412 117.225 30.7412C117.665 30.7412 118.11 30.7817 118.549 30.8629C122.486 31.5861 125.101 35.3785 124.377 39.3156C123.983 41.4579 122.674 43.2342 120.902 44.2731C120.902 44.2811 120.902 44.289 120.902 44.2961C121.982 44.4839 122.993 44.8358 123.902 45.32C125.45 43.9115 126.571 42.01 126.978 39.7936C127.967 34.4128 124.407 29.2489 119.026 28.2602C118.42 28.1491 117.818 28.0953 117.223 28.0953C112.536 28.0953 108.369 31.437 107.491 36.2129C107.276 37.3806 107.288 38.5351 107.474 39.6419C108.223 39.2213 109.077 38.894 110.008 38.6762C109.949 38.0218 109.972 37.3559 110.095 36.6909Z" fill="#F0EBFF"/>
<path d="M108.64 42.01C109.247 41.6502 109.965 41.3909 110.735 41.2224C110.336 40.4199 110.091 39.5608 110.009 38.6762C109.079 38.8949 108.225 39.2221 107.476 39.642C107.626 40.5433 107.899 41.4094 108.283 42.2226L108.64 42.01Z" fill="#F0EBFF"/>
<path d="M120.902 44.2731C120.053 44.7714 119.095 45.096 118.081 45.2124L117.886 46.4578L120.449 46.9031C120.705 46.9481 120.953 47.0081 121.198 47.076C122.19 46.6421 123.102 46.0476 123.902 45.32C122.992 44.8358 121.981 44.4839 120.901 44.2961C120.902 44.289 120.901 44.2811 120.902 44.2731Z" fill="#F0EBFF"/>
<path d="M100.05 33.3112L105.256 34.9446C105.607 35.054 105.98 34.859 106.09 34.5089C106.2 34.1579 106.005 33.7848 105.654 33.6746L100.448 32.042C100.098 31.9318 99.7241 32.1267 99.6138 32.4777C99.5036 32.8279 99.6985 33.2018 100.05 33.3112Z" fill="#F0EBFF"/>
<path d="M110.025 27.9594C110.223 28.2699 110.635 28.3599 110.944 28.1623C111.254 27.9639 111.344 27.5529 111.146 27.2433L108.209 22.6456C108.01 22.3369 107.599 22.2461 107.29 22.4436C106.98 22.6412 106.889 23.0531 107.088 23.3626L110.025 27.9594Z" fill="#F0EBFF"/>
<path d="M118.743 26.4204C119.107 26.468 119.441 26.2114 119.489 25.8463L120.194 20.4354C120.241 20.0712 119.984 19.7378 119.62 19.6893C119.256 19.6425 118.921 19.8992 118.874 20.2634L118.17 25.6743C118.121 26.0394 118.38 26.3719 118.743 26.4204Z" fill="#F0EBFF"/>
<path d="M126.777 30.1388L130.794 26.446C131.064 26.1981 131.081 25.7766 130.833 25.5067C130.584 25.2359 130.164 25.2183 129.894 25.467L125.876 29.1589C125.605 29.4085 125.589 29.8283 125.836 30.0991C126.084 30.3698 126.505 30.3884 126.777 30.1388Z" fill="#F0EBFF"/>
<path d="M134.99 36.5357L129.54 36.7817C129.172 36.7985 128.889 37.1098 128.904 37.4767C128.921 37.8445 129.233 38.1276 129.6 38.1117L135.05 37.8648C135.416 37.8489 135.7 37.5367 135.685 37.1698C135.668 36.8038 135.357 36.5198 134.99 36.5357Z" fill="#F0EBFF"/>
<path d="M127.446 44.9769C127.154 44.7529 126.737 44.8102 126.513 45.1013C126.289 45.3923 126.346 45.8113 126.638 46.0353L130.972 49.3497C131.263 49.5719 131.681 49.5164 131.906 49.2236C132.128 48.9343 132.072 48.5154 131.78 48.2913L127.446 44.9769Z" fill="#F0EBFF"/>
<path d="M158.223 20.2431C157.931 20.1453 157.717 19.878 157.717 19.5543C157.717 19.1495 158.047 18.8197 158.452 18.8197C158.533 18.8197 158.608 18.8417 158.681 18.8664L158.87 18.2993L161.804 19.2783C161.662 17.5452 160.222 16.1738 158.452 16.1738C156.587 16.1738 155.071 17.6899 155.071 19.5543C155.071 21.4188 156.587 22.9349 158.452 22.9349C159.456 22.9349 160.349 22.486 160.969 21.7883L158.033 20.8085L158.223 20.2431Z" fill="#F0EBFF"/>
<path d="M169.593 24.6671C169.737 26.4001 171.176 27.7724 172.945 27.7724C173.181 27.7724 173.412 27.7478 173.634 27.701L172.109 25.5076L169.593 24.6671Z" fill="#F0EBFF"/>
<path d="M175.801 26.184C176.129 25.6628 176.326 25.0516 176.326 24.391C176.326 22.5265 174.809 21.0104 172.946 21.0104C171.941 21.0104 171.048 21.4594 170.429 22.157L173.782 23.2762L175.801 26.184Z" fill="#F0EBFF"/>
<path d="M182.7 36.5533C183.122 35.9897 183.38 35.2974 183.38 34.5407C183.38 32.6762 181.863 31.1601 179.999 31.1601C179.762 31.1601 179.531 31.1857 179.307 31.2324L181.143 33.8757L182.7 36.5533Z" fill="#F0EBFF"/>
<path d="M177.144 32.7502C176.816 33.2706 176.619 33.8818 176.619 34.5406C176.619 36.4051 178.135 37.9212 180 37.9212C180.141 37.9212 180.275 37.8965 180.411 37.8797L178.883 35.2515L177.144 32.7502Z" fill="#F0EBFF"/>
<path d="M188.531 47.2621L186.839 46.3607L185.841 48.3275C185.915 48.3328 185.985 48.3495 186.061 48.3495C187.039 48.3495 187.913 47.9271 188.531 47.2621Z" fill="#F0EBFF"/>
<path d="M183.362 42.9564C182.94 43.5208 182.682 44.2123 182.682 44.9681C182.682 45.7936 182.991 46.5407 183.483 47.128L184.557 45.0122L183.362 42.9564Z" fill="#F0EBFF"/>
<path d="M187.665 43.8021L189.42 44.7379C189.298 42.9837 187.847 41.5893 186.061 41.5893C185.921 41.5893 185.786 41.614 185.65 41.6307L187.305 44.4768L187.665 43.8021Z" fill="#F0EBFF"/>
<path d="M181.062 57.7522L182.612 58.3925C182.603 57.582 182.3 56.8482 181.814 56.2696L181.062 57.7522Z" fill="#F0EBFF"/>
<path d="M179.455 55.071C179.38 55.0657 179.309 55.049 179.234 55.049C177.37 55.049 175.854 56.565 175.854 58.4286C175.854 60.2931 177.37 61.8101 179.234 61.8101C180.155 61.8101 180.99 61.4379 181.6 60.8382L177.408 59.106L179.455 55.071Z" fill="#F0EBFF"/>
<path d="M191.884 62.222L193.7 62.9725L194.7 61.2968C194.552 61.2774 194.404 61.2509 194.25 61.2509C193.329 61.25 192.495 61.6222 191.884 62.222Z" fill="#F0EBFF"/>
<path d="M190.873 64.6676C190.893 66.5145 192.399 68.0112 194.25 68.0112C196.115 68.0112 197.632 66.4942 197.632 64.6297C197.632 63.8862 197.383 63.2045 196.974 62.6462L194.8 66.2896L190.873 64.6676Z" fill="#F0EBFF"/>
<path d="M201.413 49.2483C200.612 49.2483 199.885 49.5393 199.305 50.0068L203.259 52.1147L200.963 55.9636C201.111 55.983 201.258 56.0094 201.413 56.0094C203.277 56.0094 204.794 54.4924 204.794 52.628C204.794 50.7644 203.277 49.2483 201.413 49.2483Z" fill="#F0EBFF"/>
<path d="M198.688 54.6124L199.565 53.143L198.061 52.3413C198.053 52.4374 198.032 52.53 198.032 52.6279C198.032 53.3714 198.28 54.0532 198.688 54.6124Z" fill="#F0EBFF"/>
<path d="M200.161 25.8171C200.294 23.6405 202.22 21.8642 204.381 21.8642C204.462 21.8642 204.543 21.8659 204.623 21.8712C202.366 21.7319 200.538 19.6654 200.677 17.4067C200.543 19.5834 198.617 21.3597 196.456 21.3597C196.375 21.3597 196.294 21.3579 196.214 21.3526C198.472 21.4929 200.299 23.5593 200.161 25.8171Z" fill="#F0EBFF"/>
<path d="M191.883 62.222L182.611 58.3916C182.611 58.4048 182.615 58.4154 182.615 58.4278C182.615 59.3706 182.225 60.2234 181.6 60.8373L190.873 64.6677C190.873 64.6544 190.869 64.643 190.869 64.6297C190.869 63.6869 191.259 62.8358 191.883 62.222Z" fill="#F0EBFF"/>
<path d="M198.687 54.6124L194.699 61.2959C195.633 61.422 196.444 61.9203 196.974 62.6462L200.962 55.9635C200.03 55.8383 199.219 55.3391 198.687 54.6124Z" fill="#F0EBFF"/>
<path d="M170.428 22.157L161.805 19.2791C161.813 19.3717 161.833 19.4608 161.833 19.5552C161.833 20.4151 161.501 21.1921 160.97 21.7901L169.594 24.6679C169.586 24.5753 169.565 24.4862 169.565 24.3919C169.565 23.5311 169.898 22.7541 170.428 22.157Z" fill="#F0EBFF"/>
<path d="M188.531 47.2621L198.061 52.3413C198.142 51.3976 198.606 50.5695 199.304 50.0076L189.42 44.7379C189.426 44.8155 189.443 44.8896 189.443 44.969C189.444 45.8554 189.093 46.6579 188.531 47.2621Z" fill="#F0EBFF"/>
<path d="M179.308 31.2324L175.801 26.1832C175.319 26.9469 174.548 27.5105 173.635 27.7001L177.144 32.7503C177.625 31.9856 178.396 31.4229 179.308 31.2324Z" fill="#F0EBFF"/>
<path d="M181.813 56.2687L185.841 48.3275C184.894 48.2658 184.059 47.8151 183.483 47.1289L179.454 55.071C180.403 55.1327 181.238 55.5834 181.813 56.2687Z" fill="#F0EBFF"/>
<path d="M185.652 41.6299L182.7 36.5533C182.162 37.2738 181.347 37.7651 180.41 37.8798L183.361 42.9563C183.901 42.2367 184.715 41.7454 185.652 41.6299Z" fill="#F0EBFF"/>
<path d="M161.806 19.2792L158.871 18.3002L158.683 18.8673C158.974 18.9643 159.188 19.2315 159.188 19.5552C159.188 19.96 158.858 20.2899 158.453 20.2899C158.372 20.2899 158.297 20.2678 158.224 20.2431L158.035 20.8094L160.971 21.7892C161.502 21.1921 161.835 20.4142 161.835 19.5543C161.834 19.46 161.813 19.3709 161.806 19.2792Z" fill="#F0EBFF"/>
<path d="M175.801 26.184L173.781 23.2762L170.428 22.157C169.897 22.7541 169.564 23.5311 169.564 24.391C169.564 24.4854 169.585 24.5744 169.593 24.6671L172.11 25.5076L173.635 27.701C174.548 27.5105 175.319 26.9478 175.801 26.184ZM172.946 25.1257C172.541 25.1257 172.211 24.7958 172.211 24.391C172.211 23.9862 172.541 23.6563 172.946 23.6563C173.351 23.6563 173.681 23.9862 173.681 24.391C173.681 24.7958 173.351 25.1257 172.946 25.1257Z" fill="#F0EBFF"/>
<path d="M182.7 36.5533L181.143 33.8757L179.307 31.2324C178.395 31.4229 177.624 31.9856 177.144 32.7503L178.882 35.2515L180.409 37.8798C181.347 37.7651 182.162 37.2739 182.7 36.5533ZM180 35.2762C179.595 35.2762 179.266 34.9464 179.266 34.5416C179.266 34.1367 179.595 33.8069 180 33.8069C180.405 33.8069 180.735 34.1367 180.735 34.5416C180.735 34.9464 180.405 35.2762 180 35.2762Z" fill="#F0EBFF"/>
<path d="M185.842 48.3275L186.841 46.3607L188.532 47.2621C189.094 46.6579 189.444 45.8553 189.444 44.9681C189.444 44.8887 189.426 44.8146 189.421 44.737L187.666 43.8012L187.307 44.4751L185.653 41.629C184.716 41.7445 183.902 42.2358 183.362 42.9554L184.557 45.0113L183.484 47.1271C184.059 47.8151 184.894 48.2657 185.842 48.3275ZM186.063 44.2343C186.469 44.2343 186.798 44.5633 186.798 44.9681C186.798 45.3738 186.469 45.7036 186.063 45.7036C185.658 45.7036 185.328 45.3738 185.328 44.9681C185.328 44.5633 185.658 44.2343 186.063 44.2343Z" fill="#F0EBFF"/>
<path d="M182.615 58.4278C182.615 58.4154 182.612 58.4048 182.612 58.3916L181.061 57.7513L181.814 56.2678C181.239 55.5825 180.403 55.1319 179.455 55.0701L177.408 59.1051L181.6 60.8373C182.225 60.2234 182.615 59.3715 182.615 58.4278ZM179.235 59.1633C178.83 59.1633 178.5 58.8335 178.5 58.4278C178.5 58.0229 178.83 57.694 179.235 57.694C179.64 57.694 179.969 58.0229 179.969 58.4278C179.969 58.8335 179.64 59.1633 179.235 59.1633Z" fill="#F0EBFF"/>
<path d="M194.7 61.2959L193.699 62.9716L191.883 62.2211C191.259 62.8349 190.869 63.686 190.869 64.6288C190.869 64.6421 190.873 64.6535 190.873 64.6668L194.8 66.2887L196.974 62.6453C196.443 61.9203 195.633 61.422 194.7 61.2959ZM194.25 65.3653C193.845 65.3653 193.515 65.0354 193.515 64.6297C193.515 64.2249 193.845 63.8959 194.25 63.8959C194.655 63.8959 194.985 64.2249 194.985 64.6297C194.985 65.0354 194.655 65.3653 194.25 65.3653Z" fill="#F0EBFF"/>
<path d="M199.304 50.0068C198.606 50.5695 198.142 51.3967 198.061 52.3405L199.564 53.1422L198.688 54.6115C199.219 55.3382 200.029 55.8374 200.962 55.9627L203.259 52.1138L199.304 50.0068ZM201.412 53.3635C201.007 53.3635 200.677 53.0337 200.677 52.628C200.677 52.2232 201.007 51.8942 201.412 51.8942C201.818 51.8942 202.148 52.2232 202.148 52.628C202.148 53.0337 201.818 53.3635 201.412 53.3635Z" fill="#F0EBFF"/>
<path d="M233.836 52.5909L228.4 36.1899L240.108 32.3084L243.124 41.4076C243.41 41.2639 243.729 41.1704 244.068 41.1466L245.783 41.0213L242.579 31.355C242.228 30.2975 241.245 29.6281 240.189 29.6281C239.927 29.6281 239.66 29.6696 239.397 29.7569L227.447 33.7187C226.126 34.157 225.41 35.5814 225.849 36.9008L231.362 53.5373C231.713 54.5947 232.696 55.2642 233.752 55.2642C234.015 55.2642 234.282 55.2227 234.544 55.1354L242.37 52.5415L242.172 49.8216L233.836 52.5909Z" fill="#F0EBFF"/>
<path d="M243.124 41.4076C242.24 41.8503 241.663 42.7923 241.739 43.8409L242.173 49.8215L244.763 48.9607L244.522 45.6251L243.124 41.4076Z" fill="#F0EBFF"/>
<path d="M259.318 42.5648C259.223 41.2383 258.117 40.2285 256.807 40.2285C256.747 40.2285 256.685 40.2302 256.624 40.2346L245.782 41.0222L246.641 43.6134L256.689 42.884L257.939 60.1088L245.637 61.004L244.96 51.6843L242.37 52.5433L243.007 61.3215C243.103 62.6471 244.208 63.6587 245.515 63.6587C245.576 63.6587 245.638 63.6561 245.7 63.6517L258.257 62.7388C259.644 62.64 260.687 61.4335 260.587 60.0453L259.318 42.5648Z" fill="#F0EBFF"/>
<path d="M244.763 48.9617L242.173 49.8216L242.37 52.5416L244.961 51.6834L244.763 48.9617Z" fill="#F0EBFF"/>
<path d="M243.124 41.4076L244.522 45.6252L244.388 43.7757L246.643 43.6117L245.784 41.0204L244.069 41.1457C243.729 41.1713 243.411 41.2639 243.124 41.4076Z" fill="#F0EBFF"/>
<path d="M259.368 19.0031L271.623 20.4107L269.654 37.5693L257.399 36.1626L259.368 19.0031ZM259.254 16.3431C257.991 16.3431 256.901 17.2912 256.754 18.5753L254.755 35.9871C254.597 37.3682 255.588 38.618 256.97 38.7758L269.479 40.2117C269.576 40.2231 269.674 40.2284 269.769 40.2284C271.031 40.2284 272.12 39.2803 272.267 37.9962L274.266 20.5844C274.425 19.2033 273.433 17.9544 272.052 17.7957L259.544 16.3598C259.447 16.3484 259.35 16.3431 259.254 16.3431Z" fill="#F0EBFF"/>
<path d="M342.674 53.4896H315.35V26.5106L342.674 26.5106C351.978 26.5106 361.494 29.1861 363.256 40.0001C361.494 50.8141 351.978 53.4896 342.674 53.4896Z" fill="#E6E6E6"/>
<path d="M314.653 53.4896V26.5105C314.653 26.3255 314.726 26.148 314.857 26.0172C314.988 25.8864 315.165 25.8129 315.35 25.8129L342.675 25.8129C355.268 25.8129 362.426 30.5501 363.954 39.8885C363.966 39.9624 363.966 40.0378 363.954 40.1117C362.433 49.4501 355.278 54.1873 342.675 54.1873H315.35C315.165 54.1873 314.988 54.1138 314.857 53.983C314.726 53.8521 314.653 53.6747 314.653 53.4896ZM316.048 27.2082V52.7919H342.675C354.431 52.7919 361.114 48.4873 362.559 40.0001C361.114 31.5129 354.431 27.2082 342.675 27.2082L316.048 27.2082Z" fill="#1A1A1A"/>
<path d="M315.351 26.5106V53.4896H314.133C313.023 53.4896 311.958 53.0486 311.173 52.2636C310.388 51.4785 309.947 50.4138 309.947 49.3036V30.6966C309.947 29.5864 310.388 28.5217 311.173 27.7366C311.958 26.9516 313.023 26.5106 314.133 26.5106H315.351Z" fill="#E55252"/>
<path d="M309.25 49.3036V30.6966C309.25 29.4013 309.765 28.1592 310.68 27.2433C311.596 26.3274 312.838 25.8129 314.134 25.8129H315.351C315.536 25.8129 315.714 25.8864 315.844 26.0172C315.975 26.148 316.049 26.3255 316.049 26.5105V53.4896C316.049 53.6747 315.975 53.8521 315.844 53.983C315.714 54.1138 315.536 54.1873 315.351 54.1873H314.134C313.492 54.1873 312.857 54.061 312.265 53.8155C311.672 53.5701 311.134 53.2104 310.68 52.7569C310.227 52.3034 309.867 51.765 309.622 51.1725C309.376 50.58 309.25 49.9449 309.25 49.3036ZM314.653 27.2082H314.134C313.209 27.2082 312.321 27.5757 311.667 28.2299C311.013 28.8841 310.645 29.7714 310.645 30.6966V49.3036C310.645 50.2288 311.013 51.116 311.667 51.7702C312.321 52.4244 313.209 52.7919 314.134 52.7919H314.653V27.2082Z" fill="#1A1A1A"/>
<path d="M306.396 51.571C302.385 51.571 294.421 47.7896 290.699 40.0001C294.421 32.2105 302.385 28.4291 306.396 28.4291V51.571Z" fill="#E55252"/>
<path d="M290 40C290.001 39.896 290.025 39.7935 290.07 39.7C291.858 36.0265 294.623 32.9164 298.062 30.7104C300.936 28.8477 304.051 27.7349 306.399 27.7349C306.584 27.7349 306.761 27.8084 306.892 27.9392C307.023 28.07 307.097 28.2475 307.097 28.4325V51.5744C307.097 51.7594 307.023 51.9369 306.892 52.0677C306.761 52.1986 306.584 52.2721 306.399 52.2721C301.951 52.2721 293.802 48.1139 290.073 40.3035C290.026 40.2091 290.001 40.1054 290 40ZM305.698 29.1651C302.066 29.5558 295.055 32.8139 291.476 40C295.058 47.186 302.07 50.4442 305.698 50.8349V29.1651Z" fill="#1A1A1A"/>
<path d="M295.48 40C296.636 38.2263 298.234 36.7837 300.116 35.814V44.1861C298.234 43.2163 296.636 41.7737 295.48 40Z" fill="#FABF2A"/>
<path d="M295.48 40.0001C297.157 37.4261 299.476 35.334 302.209 33.9303V46.0698C299.476 44.6661 297.157 42.574 295.48 40.0001Z" fill="#FABF2A"/>
<path d="M294.783 40C294.783 39.8663 294.822 39.7356 294.894 39.6233C296.641 36.9485 299.052 34.7729 301.892 33.3093C301.998 33.255 302.117 33.2288 302.236 33.2334C302.356 33.238 302.472 33.2731 302.574 33.3354C302.675 33.3977 302.76 33.4851 302.818 33.5893C302.876 33.6934 302.907 33.8108 302.907 33.9302V46.0698C302.907 46.1897 302.877 46.3076 302.818 46.4122C302.76 46.5168 302.675 46.6045 302.573 46.667C302.47 46.7294 302.354 46.7643 302.234 46.7685C302.114 46.7727 301.995 46.7459 301.889 46.6907C299.046 45.2281 296.633 43.0525 294.884 40.3768C294.815 40.2634 294.78 40.1327 294.783 40ZM301.512 35.1163C299.456 36.3604 297.686 38.0246 296.318 40C297.686 41.9755 299.456 43.6398 301.512 44.8837V35.1163Z" fill="#1A1A1A"/>
<path d="M304.652 10.6976H314.165L329.256 26.5104H315.351L312.222 20.029H304.652V10.6976Z" fill="#4D4D4D"/>
<path d="M303.954 20.0291V10.6977C303.954 10.5126 304.028 10.3352 304.159 10.2043C304.289 10.0735 304.467 10 304.652 10L314.165 10C314.259 9.99989 314.353 10.019 314.44 10.0562C314.527 10.0934 314.605 10.1478 314.671 10.2163L329.768 26.0291C329.863 26.128 329.926 26.2524 329.95 26.3869C329.974 26.5213 329.958 26.66 329.904 26.7855C329.851 26.9111 329.761 27.0181 329.647 27.0932C329.533 27.1683 329.399 27.2083 329.262 27.2081H315.361C315.23 27.2081 315.102 27.1711 314.991 27.1014C314.88 27.0316 314.79 26.932 314.733 26.814L311.793 20.7268H304.652C304.467 20.7268 304.289 20.6532 304.159 20.5224C304.028 20.3916 303.954 20.2141 303.954 20.0291ZM305.35 11.3954V19.3314H312.222C312.353 19.3315 312.481 19.3685 312.592 19.4382C312.703 19.5079 312.793 19.6075 312.85 19.7256L315.79 25.8128H327.623L313.865 11.3954L305.35 11.3954Z" fill="#1A1A1A"/>
<path d="M304.652 69.3024H314.165L329.256 53.4896H315.351L312.222 59.971H304.652V69.3024Z" fill="#4D4D4D"/>
<path d="M303.954 69.3023V59.9709C303.954 59.7859 304.028 59.6085 304.158 59.4776C304.289 59.3468 304.467 59.2733 304.652 59.2733H311.782L314.723 53.1861C314.78 53.068 314.869 52.9684 314.98 52.8987C315.091 52.8289 315.219 52.7919 315.351 52.7919H329.252C329.388 52.7917 329.522 52.8317 329.636 52.9068C329.75 52.9819 329.84 53.0889 329.894 53.2145C329.948 53.3401 329.963 53.4787 329.939 53.6132C329.915 53.7476 329.852 53.872 329.758 53.9709L314.67 69.7837C314.605 69.8522 314.527 69.9067 314.44 69.9438C314.353 69.981 314.259 70.0001 314.164 70H304.652C304.467 70 304.289 69.9265 304.158 69.7957C304.028 69.6648 303.954 69.4874 303.954 69.3023ZM305.349 60.6686V68.6047H313.864L327.623 54.1872H315.787L312.846 60.2744C312.789 60.3925 312.7 60.4921 312.589 60.5618C312.478 60.6316 312.349 60.6686 312.218 60.6686H305.349Z" fill="#1A1A1A"/>
<path d="M329.251 40.0001L314.16 34.7361H304.651V45.2675H314.164L329.251 40.0001Z" fill="#4D4D4D"/>
<path d="M303.954 45.264V34.7361C303.954 34.5511 304.027 34.3736 304.158 34.2428C304.289 34.112 304.466 34.0385 304.651 34.0385L314.164 34.0385C314.243 34.0382 314.32 34.0512 314.394 34.0768L329.482 39.3408C329.619 39.3882 329.738 39.4772 329.822 39.5954C329.906 39.7136 329.951 39.855 329.951 40.0001C329.951 40.1452 329.906 40.2866 329.822 40.4048C329.738 40.5229 329.619 40.6119 329.482 40.6594L314.394 45.9303C314.32 45.956 314.243 45.9689 314.164 45.9687H304.651C304.559 45.9687 304.468 45.9504 304.383 45.9149C304.298 45.8794 304.221 45.8274 304.156 45.7619C304.091 45.6964 304.04 45.6186 304.005 45.5332C303.97 45.4477 303.953 45.3562 303.954 45.264ZM305.349 35.4303V44.5664H314.046L327.134 40.0001L314.046 35.4338L305.349 35.4303Z" fill="#1A1A1A"/>
<path d="M347.805 40C347.805 41.9265 349.367 43.4883 351.294 43.4883C353.22 43.4883 354.782 41.9265 354.782 40C354.782 38.0734 353.22 36.5116 351.294 36.5116C349.367 36.5116 347.805 38.0734 347.805 40Z" fill="#C3ADFF"/>
<path d="M347.108 40C347.108 39.1721 347.354 38.3628 347.814 37.6744C348.274 36.986 348.928 36.4494 349.692 36.1326C350.457 35.8158 351.299 35.7329 352.111 35.8944C352.923 36.0559 353.669 36.4546 354.254 37.04C354.84 37.6255 355.239 38.3713 355.4 39.1834C355.562 39.9954 355.479 40.837 355.162 41.6019C354.845 42.3668 354.308 43.0206 353.62 43.4806C352.932 43.9406 352.122 44.1861 351.294 44.1861C350.184 44.1861 349.119 43.745 348.334 42.96C347.549 42.175 347.108 41.1102 347.108 40ZM354.085 40C354.085 39.4481 353.921 38.9085 353.615 38.4496C353.308 37.9907 352.872 37.633 352.362 37.4217C351.852 37.2105 351.291 37.1553 350.75 37.2629C350.209 37.3706 349.711 37.6364 349.321 38.0267C348.931 38.417 348.665 38.9142 348.557 39.4556C348.45 39.9969 348.505 40.558 348.716 41.068C348.927 41.5779 349.285 42.0138 349.744 42.3204C350.203 42.627 350.742 42.7907 351.294 42.7907C352.035 42.7907 352.744 42.4967 353.268 41.9733C353.791 41.45 354.085 40.7402 354.085 40Z" fill="#1A1A1A"/>
<path d="M336.082 40C336.082 41.9265 337.644 43.4883 339.57 43.4883C341.497 43.4883 343.059 41.9265 343.059 40C343.059 38.0734 341.497 36.5116 339.57 36.5116C337.644 36.5116 336.082 38.0734 336.082 40Z" fill="#C3ADFF"/>
<path d="M335.385 40C335.385 39.1721 335.63 38.3628 336.09 37.6744C336.55 36.986 337.204 36.4494 337.969 36.1326C338.734 35.8158 339.575 35.7329 340.387 35.8944C341.199 36.0559 341.945 36.4546 342.531 37.04C343.116 37.6255 343.515 38.3713 343.676 39.1834C343.838 39.9954 343.755 40.837 343.438 41.6019C343.121 42.3668 342.585 43.0206 341.896 43.4806C341.208 43.9406 340.399 44.1861 339.571 44.1861C338.461 44.1861 337.396 43.745 336.611 42.96C335.826 42.175 335.385 41.1102 335.385 40ZM342.361 40C342.361 39.4481 342.198 38.9085 341.891 38.4496C341.585 37.9907 341.149 37.633 340.639 37.4217C340.129 37.2105 339.568 37.1553 339.026 37.2629C338.485 37.3706 337.988 37.6364 337.597 38.0267C337.207 38.417 336.941 38.9142 336.834 39.4556C336.726 39.9969 336.781 40.558 336.993 41.068C337.204 41.5779 337.561 42.0138 338.02 42.3204C338.479 42.627 339.019 42.7907 339.571 42.7907C340.311 42.7907 341.021 42.4967 341.544 41.9733C342.067 41.45 342.361 40.7402 342.361 40Z" fill="#1A1A1A"/>
<path d="M30.0016 80C24.5701 80 23.8883 80.0238 21.7551 80.1208C19.6259 80.2184 18.1725 80.5554 16.9009 81.05C15.5853 81.5608 14.4696 82.2442 13.358 83.3562C12.2454 84.468 11.562 85.5837 11.0496 86.8987C10.5536 88.1707 10.2162 89.6247 10.1204 91.7529C10.025 93.8863 10 94.5683 10 100C10 105.432 10.024 106.111 10.1208 108.245C10.2188 110.374 10.5558 111.827 11.05 113.099C11.5612 114.414 12.2446 115.53 13.3566 116.642C14.468 117.754 15.5837 118.439 16.8983 118.95C18.1709 119.445 19.6245 119.782 21.7533 119.879C23.8867 119.976 24.5679 120 29.9992 120C35.4314 120 36.1109 119.976 38.2441 119.879C40.3733 119.782 41.8283 119.445 43.1009 118.95C44.4159 118.439 45.53 117.754 46.6412 116.642C47.7538 115.53 48.437 114.414 48.9496 113.099C49.4412 111.827 49.7788 110.373 49.8788 108.245C49.9746 106.112 49.9996 105.432 49.9996 100C49.9996 94.5683 49.9746 93.8867 49.8788 91.7533C49.7788 89.6241 49.4412 88.1709 48.9496 86.8993C48.437 85.5837 47.7538 84.468 46.6412 83.3562C45.5288 82.2438 44.4163 81.5604 43.0997 81.0502C41.8247 80.5554 40.3705 80.2182 38.2413 80.1208C36.1079 80.0238 35.4287 80 29.9954 80H30.0016ZM28.2074 83.6042C28.74 83.6034 29.3342 83.6042 30.0016 83.6042C35.3418 83.6042 35.9745 83.6234 38.0833 83.7192C40.0333 83.8084 41.0917 84.1342 41.7967 84.408C42.7301 84.7704 43.3955 85.2037 44.0951 85.9039C44.7951 86.6039 45.2283 87.2705 45.5917 88.2039C45.8654 88.9079 46.1916 89.9663 46.2804 91.9163C46.3762 94.0247 46.397 94.6579 46.397 99.9954C46.397 105.333 46.3762 105.966 46.2804 108.075C46.1912 110.024 45.8654 111.083 45.5917 111.787C45.2293 112.72 44.7951 113.385 44.0951 114.085C43.3951 114.785 42.7305 115.218 41.7967 115.58C41.0925 115.855 40.0333 116.18 38.0833 116.27C35.9749 116.365 35.3418 116.386 30.0016 116.386C24.6613 116.386 24.0283 116.365 21.9201 116.27C19.9701 116.18 18.9117 115.854 18.2061 115.58C17.2729 115.217 16.6061 114.784 15.9061 114.084C15.2061 113.384 14.773 112.719 14.4096 111.785C14.1358 111.081 13.8096 110.023 13.7208 108.073C13.625 105.965 13.6058 105.331 13.6058 99.9904C13.6058 94.6497 13.625 94.0197 13.7208 91.9113C13.81 89.9613 14.1358 88.9029 14.4096 88.1979C14.7722 87.2645 15.2061 86.5979 15.9063 85.8979C16.6063 85.1979 17.2729 84.7646 18.2063 84.4014C18.9113 84.1264 19.9701 83.8014 21.9201 83.7118C23.7651 83.6284 24.4801 83.6034 28.2074 83.5992V83.6042ZM40.6775 86.9249C39.3525 86.9249 38.2775 87.9989 38.2775 89.3241C38.2775 90.6491 39.3525 91.7241 40.6775 91.7241C42.0025 91.7241 43.0775 90.6491 43.0775 89.3241C43.0775 87.9991 42.0025 86.9241 40.6775 86.9241V86.9249ZM30.0016 89.7291C24.3297 89.7291 19.7309 94.3279 19.7309 100C19.7309 105.672 24.3297 110.269 30.0016 110.269C35.6737 110.269 40.2709 105.672 40.2709 100C40.2709 94.3281 35.6733 89.7291 30.0012 89.7291H30.0016ZM30.0016 93.3333C33.6834 93.3333 36.6683 96.3178 36.6683 100C36.6683 103.682 33.6834 106.667 30.0016 106.667C26.3196 106.667 23.3351 103.682 23.3351 100C23.3351 96.3178 26.3196 93.3333 30.0016 93.3333Z" fill="url(#paint0_linear_89_5)"/>
<path d="M80.0018 80C74.5702 80 73.8884 80.0238 71.7552 80.1208C69.626 80.2184 68.1726 80.5554 66.901 81.05C65.5854 81.5608 64.4696 82.2442 63.358 83.3562C62.2454 84.468 61.562 85.5837 61.0496 86.8987C60.5536 88.1707 60.2162 89.6247 60.1204 91.7529C60.025 93.8863 60 94.5683 60 100C60 105.432 60.024 106.111 60.1208 108.245C60.2188 110.374 60.5558 111.827 61.05 113.099C61.5612 114.414 62.2446 115.53 63.3566 116.642C64.468 117.754 65.5838 118.439 66.8984 118.95C68.171 119.445 69.6246 119.782 71.7534 119.879C73.8868 119.976 74.568 120 79.9994 120C85.4316 120 86.1112 119.976 88.2444 119.879C90.3736 119.782 91.8286 119.445 93.1012 118.95C94.4162 118.439 95.5304 117.754 96.6416 116.642C97.7542 115.53 98.4374 114.414 98.95 113.099C99.4416 111.827 99.7792 110.373 99.8792 108.245C99.975 106.112 100 105.432 100 100C100 94.5683 99.975 93.8867 99.8792 91.7533C99.7792 89.6241 99.4416 88.1709 98.95 86.8993C98.4374 85.5837 97.7542 84.468 96.6416 83.3562C95.5292 82.2438 94.4166 81.5604 93.1 81.0502C91.825 80.5554 90.3708 80.2182 88.2416 80.1208C86.1082 80.0238 85.429 80 79.9956 80H80.0018ZM78.2076 83.6042C78.7402 83.6034 79.3344 83.6042 80.0018 83.6042C85.342 83.6042 85.9748 83.6234 88.0836 83.7192C90.0336 83.8084 91.092 84.1342 91.797 84.408C92.7304 84.7704 93.3958 85.2037 94.0954 85.9039C94.7954 86.6039 95.2286 87.2705 95.592 88.2039C95.8658 88.9079 96.192 89.9663 96.2808 91.9163C96.3766 94.0247 96.3974 94.6579 96.3974 99.9954C96.3974 105.333 96.3766 105.966 96.2808 108.075C96.1916 110.024 95.8658 111.083 95.592 111.787C95.2296 112.72 94.7954 113.385 94.0954 114.085C93.3954 114.785 92.7308 115.218 91.797 115.58C91.0928 115.855 90.0336 116.18 88.0836 116.27C85.9752 116.365 85.342 116.386 80.0018 116.386C74.6614 116.386 74.0284 116.365 71.9202 116.27C69.9702 116.18 68.9118 115.854 68.2062 115.58C67.273 115.217 66.6062 114.784 65.9062 114.084C65.2062 113.384 64.773 112.719 64.4096 111.785C64.1358 111.081 63.8096 110.023 63.7208 108.073C63.625 105.965 63.6058 105.331 63.6058 99.9904C63.6058 94.6497 63.625 94.0197 63.7208 91.9113C63.81 89.9613 64.1358 88.9029 64.4096 88.1979C64.7722 87.2645 65.2062 86.5979 65.9064 85.8979C66.6064 85.1979 67.273 84.7646 68.2064 84.4014C68.9114 84.1264 69.9702 83.8014 71.9202 83.7118C73.7652 83.6284 74.4802 83.6034 78.2076 83.5992V83.6042ZM90.6778 86.9249C89.3528 86.9249 88.2778 87.9989 88.2778 89.3241C88.2778 90.6491 89.3528 91.7241 90.6778 91.7241C92.0028 91.7241 93.0778 90.6491 93.0778 89.3241C93.0778 87.9991 92.0028 86.9249 90.6778 86.9249ZM80.0018 89.7291C74.3298 89.7291 69.731 94.3279 69.731 100C69.731 105.672 74.3298 110.269 80.0018 110.269C85.674 110.269 90.2712 105.672 90.2712 100C90.2712 94.3281 85.674 89.7291 80.0018 89.7291ZM80.0018 93.3333C83.6836 93.3333 86.6686 96.3178 86.6686 100C86.6686 103.682 83.6836 106.667 80.0018 106.667C76.3198 106.667 73.3352 103.682 73.3352 100C73.3352 96.3178 76.3198 93.3333 80.0018 93.3333Z" fill="white"/>
<g clip-path="url(#clip0_89_5)">
<rect x="110" y="80" width="40" height="40" rx="20" fill="white"/>
<path d="M118.334 101.667H138.1L132.05 108.933C131.91 109.102 131.805 109.296 131.74 109.506C131.675 109.715 131.652 109.935 131.672 110.153C131.713 110.594 131.927 111 132.267 111.283C132.607 111.566 133.046 111.702 133.487 111.662C133.928 111.621 134.334 111.407 134.617 111.067L142.95 101.067C143.006 100.987 143.057 100.904 143.1 100.817C143.1 100.733 143.184 100.683 143.217 100.6C143.293 100.409 143.332 100.205 143.334 100C143.332 99.7945 143.293 99.5911 143.217 99.4C143.217 99.3166 143.134 99.2666 143.1 99.1833C143.057 99.0964 143.006 99.0129 142.95 98.9333L134.617 88.9333C134.46 88.7452 134.264 88.5939 134.042 88.4902C133.82 88.3865 133.579 88.3329 133.334 88.3333C132.944 88.3326 132.567 88.4682 132.267 88.7166C132.098 88.8566 131.959 89.0284 131.856 89.2223C131.754 89.4162 131.691 89.6284 131.671 89.8467C131.651 90.065 131.674 90.2851 131.739 90.4945C131.804 90.7038 131.91 90.8982 132.05 91.0666L138.1 98.3333H118.334C117.892 98.3333 117.468 98.5089 117.155 98.8215C116.843 99.134 116.667 99.558 116.667 100C116.667 100.442 116.843 100.866 117.155 101.178C117.468 101.491 117.892 101.667 118.334 101.667Z" fill="#1A1A1A"/>
</g>
<g clip-path="url(#clip1_89_5)">
<g clip-path="url(#clip2_89_5)">
<path d="M175 93.75C175.989 93.75 176.956 93.4568 177.778 92.9074C178.6 92.3579 179.241 91.5771 179.619 90.6634C179.998 89.7498 180.097 88.7445 179.904 87.7746C179.711 86.8046 179.235 85.9137 178.536 85.2145C177.836 84.5152 176.945 84.039 175.975 83.8461C175.006 83.6531 174 83.7522 173.087 84.1306C172.173 84.509 171.392 85.1499 170.843 85.9722C170.293 86.7944 170 87.7611 170 88.75C170 90.0761 170.527 91.3479 171.464 92.2855C172.402 93.2232 173.674 93.75 175 93.75ZM175 86.25C175.494 86.25 175.978 86.3966 176.389 86.6713C176.8 86.946 177.12 87.3365 177.31 87.7933C177.499 88.2501 177.548 88.7528 177.452 89.2377C177.356 89.7227 177.117 90.1681 176.768 90.5178C176.418 90.8674 175.973 91.1055 175.488 91.202C175.003 91.2984 174.5 91.2489 174.043 91.0597C173.586 90.8705 173.196 90.5501 172.921 90.1389C172.647 89.7278 172.5 89.2445 172.5 88.75C172.5 88.087 172.763 87.4511 173.232 86.9822C173.701 86.5134 174.337 86.25 175 86.25Z" fill="white"/>
<path d="M175 96.25C172.679 96.25 170.454 97.1719 168.813 98.8128C167.172 100.454 166.25 102.679 166.25 105C166.25 105.332 166.382 105.649 166.616 105.884C166.851 106.118 167.168 106.25 167.5 106.25C167.832 106.25 168.149 106.118 168.384 105.884C168.618 105.649 168.75 105.332 168.75 105C168.75 103.342 169.408 101.753 170.581 100.581C171.753 99.4085 173.342 98.75 175 98.75C176.658 98.75 178.247 99.4085 179.419 100.581C180.592 101.753 181.25 103.342 181.25 105C181.25 105.332 181.382 105.649 181.616 105.884C181.851 106.118 182.168 106.25 182.5 106.25C182.832 106.25 183.149 106.118 183.384 105.884C183.618 105.649 183.75 105.332 183.75 105C183.75 102.679 182.828 100.454 181.187 98.8128C179.546 97.1719 177.321 96.25 175 96.25Z" fill="white"/>
</g>
</g>
<g clip-path="url(#clip3_89_5)">
<g clip-path="url(#clip4_89_5)">
<path d="M225.888 104.113L221.638 99.875C223.009 98.1281 223.753 95.9708 223.75 93.75C223.75 91.7722 223.164 89.8388 222.065 88.1943C220.966 86.5498 219.404 85.2681 217.577 84.5112C215.75 83.7543 213.739 83.5563 211.799 83.9422C209.859 84.328 208.077 85.2804 206.679 86.6789C205.28 88.0775 204.328 89.8593 203.942 91.7991C203.556 93.7389 203.754 95.7496 204.511 97.5768C205.268 99.4041 206.55 100.966 208.194 102.065C209.839 103.164 211.772 103.75 213.75 103.75C215.971 103.753 218.128 103.009 219.875 101.638L224.113 105.888C224.229 106.005 224.367 106.098 224.519 106.161C224.672 106.225 224.835 106.257 225 106.257C225.165 106.257 225.328 106.225 225.481 106.161C225.633 106.098 225.771 106.005 225.888 105.888C226.005 105.771 226.098 105.633 226.161 105.481C226.225 105.328 226.257 105.165 226.257 105C226.257 104.835 226.225 104.672 226.161 104.519C226.098 104.367 226.005 104.229 225.888 104.113ZM206.25 93.75C206.25 92.2666 206.69 90.8166 207.514 89.5832C208.338 88.3499 209.509 87.3886 210.88 86.8209C212.25 86.2533 213.758 86.1047 215.213 86.3941C216.668 86.6835 218.004 87.3978 219.053 88.4467C220.102 89.4956 220.817 90.832 221.106 92.2868C221.395 93.7417 221.247 95.2497 220.679 96.6201C220.111 97.9906 219.15 99.1619 217.917 99.986C216.683 100.81 215.233 101.25 213.75 101.25C211.761 101.25 209.853 100.46 208.447 99.0533C207.04 97.6468 206.25 95.7391 206.25 93.75Z" fill="white"/>
</g>
</g>
<path d="M265.458 99.4993L260.536 97.3899C260.326 97.3002 260.092 97.2814 259.87 97.3361C259.648 97.3907 259.45 97.516 259.305 97.6931L257.126 100.356C253.705 98.7433 250.952 95.9903 249.339 92.5694L252.002 90.3897C252.179 90.2454 252.305 90.0472 252.36 89.8252C252.414 89.6032 252.395 89.3694 252.305 89.1592L250.196 84.2372C250.097 84.0107 249.922 83.8257 249.702 83.7141C249.481 83.6026 249.228 83.5716 248.987 83.6264L244.417 84.6811C244.185 84.7348 243.977 84.8656 243.829 85.0523C243.68 85.239 243.6 85.4705 243.6 85.709C243.6 96.9812 252.736 106.1 263.991 106.1C264.229 106.1 264.461 106.019 264.648 105.871C264.834 105.722 264.965 105.515 265.019 105.283L266.074 100.712C266.128 100.47 266.096 100.216 265.984 99.995C265.872 99.7736 265.686 99.5983 265.458 99.4993Z" fill="#1A1A1A"/>
<rect width="30" height="30" rx="15" transform="matrix(-1 0 0 1 310 80)" fill="#1A1A1A"/>
<path d="M289.308 96.374L297.276 104.343C297.827 104.894 298.718 104.894 299.263 104.343L300.587 103.019C301.138 102.468 301.138 101.577 300.587 101.032L294.938 95.3838L300.587 89.7354C301.138 89.1846 301.138 88.2939 300.587 87.749L299.269 86.4131C298.718 85.8623 297.827 85.8623 297.282 86.4131L289.313 94.3818C288.757 94.9326 288.757 95.8232 289.308 96.374Z" fill="#E6E6E6"/>
<rect x="320" y="80" width="30" height="30" rx="15" fill="#1A1A1A"/>
<path d="M340.692 96.374L332.724 104.343C332.173 104.894 331.282 104.894 330.737 104.343L329.413 103.019C328.862 102.468 328.862 101.577 329.413 101.032L335.062 95.3838L329.413 89.7354C328.862 89.1846 328.862 88.2939 329.413 87.749L330.731 86.4131C331.282 85.8623 332.173 85.8623 332.718 86.4131L340.687 94.3818C341.243 94.9326 341.243 95.8232 340.692 96.374Z" fill="#E6E6E6"/>
<defs>
<linearGradient id="paint0_linear_89_5" x1="15.6319" y1="84.608" x2="45.3277" y2="116.352" gradientUnits="userSpaceOnUse">
<stop stop-color="#E55252"/>
<stop offset="0.46" stop-color="#FABF2A"/>
<stop offset="1" stop-color="#9670FF"/>
</linearGradient>
<clipPath id="clip0_89_5">
<rect x="110" y="80" width="40" height="40" rx="20" fill="white"/>
</clipPath>
<clipPath id="clip1_89_5">
<rect width="30" height="30" fill="white" transform="translate(160 80)"/>
</clipPath>
<clipPath id="clip2_89_5">
<rect width="30" height="30" fill="white" transform="translate(160 80)"/>
</clipPath>
<clipPath id="clip3_89_5">
<rect width="30" height="30" fill="white" transform="translate(200 80)"/>
</clipPath>
<clipPath id="clip4_89_5">
<rect width="30" height="30" fill="white" transform="translate(200 80)"/>
</clipPath>
</defs>
</svg>
